<?xml version="1.0" encoding="UTF-8" standalone="no"?>
<!-- Created with Inkscape (http://www.inkscape.org/) -->

<svg
   width="210mm"
   height="77mm"
   viewBox="0 0 210 77"
   version="1.1"
   id="svg1159"
   inkscape:version="1.1.1 (3bf5ae0d25, 2021-09-20)"
   xmlns:inkscape="http://www.inkscape.org/namespaces/inkscape"
   xmlns:sodipodi="http://sodipodi.sourceforge.net/DTD/sodipodi-0.dtd"
   xmlns="http://www.w3.org/2000/svg"
   xmlns:svg="http://www.w3.org/2000/svg">
  <sodipodi:namedview
     id="namedview1161"
     pagecolor="#ffffff"
     bordercolor="#666666"
     borderopacity="1.0"
     inkscape:pageshadow="2"
     inkscape:pageopacity="0.0"
     inkscape:pagecheckerboard="0"
     inkscape:document-units="mm"
     showgrid="false"
     inkscape:zoom="0.23162177"
     inkscape:cx="101.45851"
     inkscape:cy="559.10115"
     inkscape:window-width="1366"
     inkscape:window-height="705"
     inkscape:window-x="-8"
     inkscape:window-y="-8"
     inkscape:window-maximized="1"
     inkscape:current-layer="layer1" />
  <defs
     id="defs1156" />
  <g
     inkscape:label="Layer 1"
     inkscape:groupmode="layer"
     id="layer1">
    <path
       style="fill:#2b0a46;fill-opacity:1;stroke:#631bc2;stroke-width:0.72086px;stroke-linecap:butt;stroke-linejoin:miter;stroke-opacity:0.898039"
       d="m 7.6960081,46.039189 c 0,0 -7.98057264,-23.117391 4.8473349,-28.558217 11.443891,-4.853935 23.343509,28.558217 23.343509,28.558217 0,0 10.65327,-25.196097 -5.724733,-28.933873 C 18.020075,14.3342 7.6960081,46.039189 7.6960081,46.039189 Z"
       id="path2425"
       sodipodi:nodetypes="cscsc" />
    <path
       style="fill:#2b0a46;fill-opacity:1;stroke:#844acf;stroke-width:0.869818px;stroke-linecap:butt;stroke-linejoin:miter;stroke-opacity:1"
       d="m 50.899424,17.436675 c 0,0 -12.696368,19.156526 -5.919601,25.898826 5.777484,5.748103 21.307638,5.576002 27.024271,-0.21415 6.758883,-6.845662 -5.9196,-26.112874 -5.9196,-26.112874 -6.056851,-0.01663 -6.691727,55.436341 -6.691727,55.436341 0,0 -3.028769,-54.975634 -8.493343,-55.008262 z"
       id="path3201"
       sodipodi:nodetypes="saascs" />
    <path
       style="fill:#fdce33;fill-opacity:1;stroke:#844acf;stroke-width:0.742537px;stroke-linecap:butt;stroke-linejoin:miter;stroke-opacity:1"
       d="m 99.511197,5.8510612 c -6.621423,0.1497905 -12.139326,3.1080506 -15.036944,7.0482968 -4.505672,6.12683 -5.670096,15.49104 -0.227825,21.144854 5.855681,6.083291 22.819942,9.094275 28.251192,6.343456 6.87687,-3.483004 -4.24095,6.460858 -14.125585,6.343457 -11.471993,-0.136202 -8.008678,-18.088048 -4.100984,-26.431063 1.884661,-4.023807 6.859649,-7.38037 12.075109,-8.810359 7.60077,-2.0840146 -2.34911,-5.7400328 -6.834963,-5.6386418 z"
       id="path5327"
       sodipodi:nodetypes="saassass" />
    <path
       style="fill:#fdce33;fill-opacity:1;stroke:#b592e2;stroke-width:0.801334px;stroke-linecap:butt;stroke-linejoin:miter;stroke-opacity:1"
       d="m 121.20512,5.9720358 c -6.47242,3.2058041 0,39.9435462 0,39.9435462 0,0 8.74128,-21.825487 18.68165,-19.401173 7.89635,1.925871 0.73743,19.210985 0.73743,19.210985 0,0 -14.4116,-42.2335753 -19.41908,-39.7533582 z"
       id="path6445"
       sodipodi:nodetypes="scacs" />
    <path
       style="fill:#fdce33;fill-opacity:1;stroke:#b592e2;stroke-width:0.913256px;stroke-linecap:butt;stroke-linejoin:miter;stroke-opacity:1"
       d="m 148.01949,20.276811 c 4.30793,-4.061414 14.09983,-4.422108 18.5291,-0.471965 1.29137,1.151672 0.78903,3.470501 0,4.955471 -3.2921,6.195657 -15.00643,6.328778 -17.75707,12.742634 -1.00126,2.334721 -1.36181,4.749914 1.28677,7.433221 2.13216,2.160126 13.75105,2.822964 17.49969,-1.297835 3.31333,-3.642264 2.48356,-9.053863 -1.54407,-14.158513 -3.77255,-4.781343 -13.85859,-5.280688 -18.01441,-6.371304 -0.98968,-0.259926 -0.71774,-2.155053 -1e-5,-2.831709 z"
       id="path7435"
       sodipodi:nodetypes="saaasasss" />
    <path
       style="fill:#fdce33;fill-opacity:1;stroke:#b592e2;stroke-width:0.848705px;stroke-linecap:butt;stroke-linejoin:miter;stroke-opacity:1"
       d="m 186.93537,5.5955474 c 0,0 -8.06861,28.1272766 0.97326,37.3987236 3.28741,3.370912 11.01042,5.877623 16.05858,0.862181 5.4195,-5.384382 -35.9776,-24.352889 -29.92738,-24.249835 l 25.30444,0.431077 c 0,0 -7.48429,-1.78947 -9.73247,-4.311069 -2.42656,-2.721665 -2.67643,-10.1310776 -2.67643,-10.1310776 z"
       id="path8175"
       sodipodi:nodetypes="cssscac" />
  </g>
</svg>
