<?xml version="1.0" encoding="UTF-8" standalone="no"?>
<!-- Created with Inkscape (http://www.inkscape.org/) -->

<svg
   width="18.799999mm"
   height="14.2mm"
   viewBox="0 0 18.799999 14.199999"
   version="1.1"
   id="svg5"
   inkscape:version="1.1.1 (3bf5ae0d25, 2021-09-20)"
   sodipodi:docname="bell.svg"
   xmlns:inkscape="http://www.inkscape.org/namespaces/inkscape"
   xmlns:sodipodi="http://sodipodi.sourceforge.net/DTD/sodipodi-0.dtd"
   xmlns="http://www.w3.org/2000/svg"
   xmlns:svg="http://www.w3.org/2000/svg">
  <sodipodi:namedview
     id="namedview7"
     pagecolor="#ffffff"
     bordercolor="#666666"
     borderopacity="1.0"
     inkscape:pageshadow="2"
     inkscape:pageopacity="0.0"
     inkscape:pagecheckerboard="0"
     inkscape:document-units="mm"
     showgrid="false"
     inkscape:zoom="3.7059484"
     inkscape:cx="68.133707"
     inkscape:cy="48.705482"
     inkscape:window-width="1366"
     inkscape:window-height="705"
     inkscape:window-x="-8"
     inkscape:window-y="-8"
     inkscape:window-maximized="1"
     inkscape:current-layer="layer1" />
  <defs
     id="defs2" />
  <g
     inkscape:label="Layer 1"
     inkscape:groupmode="layer"
     id="layer1">
    <path
       id="rect950-5"
       style="fill:#2b0a46;fill-opacity:1;stroke-width:0.657365"
       d="M 8.7872324,1.1 A 3.8327078,3.9999999 0 0 0 4.9543909,5.099757 v 2.999816 h -0.00159 a 2.8745309,3 0 0 1 0.00159,0.05891 2.8745309,3 0 0 1 0,5.29e-4 2.8745309,3 0 0 1 0,0.0016 2.8745309,3 0 0 1 0,5.29e-4 2.8745309,3 0 0 1 0,0.0016 2.8745309,3 0 0 1 0,5.29e-4 2.8745309,3 0 0 1 0,0.0016 2.8745309,3 0 0 1 0,5.29e-4 2.8745309,3 0 0 1 0,0.0016 2.8745309,3 0 0 1 0,5.29e-4 2.8745309,3 0 0 1 0,0.0016 2.8745309,3 0 0 1 0,5.29e-4 2.8745309,3 0 0 1 0,0.0016 2.8745309,3 0 0 1 0,5.29e-4 2.8745309,3 0 0 1 0,0.0016 2.8745309,3 0 0 1 0,5.29e-4 2.8745309,3 0 0 1 0,0.0016 2.8745309,3 0 0 1 0,5.29e-4 2.8745309,3 0 0 1 0,0.0016 2.8745309,3 0 0 1 0,5.29e-4 2.8745309,3 0 0 1 0,0.0016 2.8745309,3 0 0 1 0,5.29e-4 2.8745309,3 0 0 1 0,0.0016 2.8745309,3 0 0 1 0,5.29e-4 2.8745309,3 0 0 1 0,0.0016 2.8745309,3 0 0 1 0,5.29e-4 2.8745309,3 0 0 1 0,0.0016 2.8745309,3 0 0 1 0,5.29e-4 2.8745309,3 0 0 1 0,0.0016 2.8745309,3 0 0 1 0,5.29e-4 2.8745309,3 0 0 1 0,0.0016 2.8745309,3 0 0 1 0,5.29e-4 2.8745309,3 0 0 1 0,0.0016 2.8745309,3 0 0 1 0,5.29e-4 2.8745309,3 0 0 1 0,0.0016 2.8745309,3 0 0 1 0,5.29e-4 2.8745309,3 0 0 1 0,0.0016 2.8745309,3 0 0 1 0,5.29e-4 2.8745309,3 0 0 1 0,0.0016 2.8745309,3 0 0 1 0,5.29e-4 2.8745309,3 0 0 1 0,0.0016 A 2.8745309,3 0 0 1 2.8,11.100901 h 2.1543909 7.6656831 2.180227 a 2.8745309,3 0 0 1 -2.180227,-2.900082 2.8745309,3 0 0 1 0.0093,-0.100253 h -0.0093 V 5.099757 A 3.8327078,3.9999999 0 0 0 8.7872324,1.1 Z m -1.98696,10.499621 a 1.9999504,2.50015 0 0 0 1.9998796,2.5001 1.9999504,2.50015 0 0 0 1.999877,-2.5001 z"
       inkscape:export-filename="C:\Users\rahul\test files\my-chat\public\images\icon.png"
       inkscape:export-xdpi="96"
       inkscape:export-ydpi="96" />
  </g>
</svg>
