<?xml version="1.0" encoding="UTF-8" standalone="no"?>
<!-- Created with Inkscape (http://www.inkscape.org/) -->

<svg
   width="210mm"
   height="210mm"
   viewBox="0 0 210 210"
   version="1.1"
   id="svg5"
   inkscape:version="1.1.1 (3bf5ae0d25, 2021-09-20)"
   xmlns:inkscape="http://www.inkscape.org/namespaces/inkscape"
   xmlns:sodipodi="http://sodipodi.sourceforge.net/DTD/sodipodi-0.dtd"
   xmlns="http://www.w3.org/2000/svg"
   xmlns:svg="http://www.w3.org/2000/svg">
  <sodipodi:namedview
     id="namedview7"
     pagecolor="#ffffff"
     bordercolor="#666666"
     borderopacity="1.0"
     inkscape:pageshadow="2"
     inkscape:pageopacity="0.0"
     inkscape:pagecheckerboard="0"
     inkscape:document-units="mm"
     showgrid="false"
     inkscape:zoom="0.23162177"
     inkscape:cx="205.07571"
     inkscape:cy="459.80133"
     inkscape:window-width="1366"
     inkscape:window-height="705"
     inkscape:window-x="-8"
     inkscape:window-y="-8"
     inkscape:window-maximized="1"
     inkscape:current-layer="layer1"
     height="210mm" />
  <defs
     id="defs2" />
  <g
     inkscape:label="Layer 1"
     inkscape:groupmode="layer"
     id="layer1">
    <path
       id="path858"
       style="fill:#2b0a46;fill-opacity:1;stroke-width:9.27219"
       d="M 105.00002,5 A 100.00093,100.00093 0 0 0 5,105.00002 100.00093,100.00093 0 0 0 105.00002,205 100.00093,100.00093 0 0 0 205,105.00002 100.00093,100.00093 0 0 0 105.00002,5 Z m 63.04582,49.330782 16.64513,34.473679 a 20.009872,19.879275 0 0 1 3.04377,10.536902 20.009872,19.879275 0 0 1 -20.00929,19.880137 20.009872,19.879275 0 0 1 -20.00931,-19.880137 20.009872,19.879275 0 0 1 2.99726,-10.438717 z"
       inkscape:export-filename="C:\Users\rahul\test files\my-chat\public\images\notFound.png"
       inkscape:export-xdpi="96"
       inkscape:export-ydpi="96" />
  </g>
</svg>
